<svg id="Capa_1" data-name="Capa 1" xmlns="http://www.w3.org/2000/svg" xmlns:xlink="http://www.w3.org/1999/xlink" viewBox="0 0 32 32"><defs><style>.cls-1{fill:#eff7f3;stroke-miterlimit:10;stroke-width:0.75px;stroke:url(#Degradado_sin_nombre_5);}.cls-2{fill:url(#Degradado_sin_nombre_5-2);}.cls-3{stroke:#f0f7f1;stroke-linecap:round;stroke-linejoin:round;stroke-width:0.5px;fill:url(#Degradado_sin_nombre_5-3);}.cls-4{fill:#f0f7f1;}</style><linearGradient id="Degradado_sin_nombre_5" x1="1.3" y1="16" x2="30.7" y2="16" gradientUnits="userSpaceOnUse"><stop offset="0" stop-color="#0a9a67"/><stop offset="1" stop-color="#19969a"/></linearGradient><linearGradient id="Degradado_sin_nombre_5-2" x1="6.64" y1="15.56" x2="25.36" y2="15.56" xlink:href="#Degradado_sin_nombre_5"/><linearGradient id="Degradado_sin_nombre_5-3" x1="14.03" y1="19.3" x2="24.18" y2="19.3" xlink:href="#Degradado_sin_nombre_5"/></defs><circle class="cls-1" cx="16" cy="16" r="14.33"/><path class="cls-2" d="M18,6.47H13.76L6.64,24.66H9.92L11.57,20h7.5l2,4.69h4.25ZM13.33,17l2.61-6.81L18.55,17Z"/><path class="cls-3" d="M14.32,24.61s5.44-6.25,6.42-6.93-5,2.57-6.58,5.37c0,0-2-8.77,9.93-9.07C24.09,14,25.86,25,14.32,24.61Z"/><polygon class="cls-4" points="18.82 18.78 16.73 20.31 17.82 20.67 19.52 18.85 20.16 18.16 19.56 18.31 18.82 18.78"/></svg>